<svg width="23" height="24" viewBox="0 0 23 24" fill="none" xmlns="http://www.w3.org/2000/svg">
<path d="M1.04289 18.4571C0.652369 18.0666 0.652369 17.4334 1.04289 17.0429L5.54289 12.5429C5.93342 12.1524 6.56658 12.1524 6.95711 12.5429C7.34763 12.9334 7.34763 13.5666 6.95711 13.9571L4.16421 16.75L19.75 16.75C20.3023 16.75 20.75 16.3023 20.75 15.75L20.75 1.75C20.75 1.19772 21.1977 0.75 21.75 0.75C22.3023 0.75 22.75 1.19772 22.75 1.75L22.75 15.75C22.75 17.4069 21.4069 18.75 19.75 18.75L4.16421 18.75L6.95711 21.5429C7.34763 21.9334 7.34763 22.5666 6.95711 22.9571C6.56658 23.3476 5.93342 23.3476 5.54289 22.9571L1.04289 18.4571Z" fill="black"/>
</svg>
